HIERARCHY
ROOT Hips
{
    OFFSET 13.890359878540039 94.64616012573242 -18.388004302978516
    CHANNELS 6 Xposition Yposition Zposition Zrotation Xrotation Yrotation
    JOINT RightUpLeg
    {
        OFFSET -13.890359878540039 0.0 0.0
        CHANNELS 3 Zrotation Xrotation Yrotation
        JOINT RightLeg
        {
            OFFSET 0.0 -48.6761474609375 0.0
            CHANNELS 3 Zrotation Xrotation Yrotation
            JOINT RightFoot
            {
                OFFSET 0.0 -45.97001266479492 0.0
                CHANNELS 3 Zrotation Xrotation Yrotation
                End Site
                {
                    OFFSET 0.0 0.0 18.388004302978516
                }
            }
        }
    }
    JOINT LeftUpLeg
    {
        OFFSET 13.890359878540039 0.0 0.0
        CHANNELS 3 Zrotation Xrotation Yrotation
        JOINT LeftLeg
        {
            OFFSET 0.0 -48.6761474609375 0.0
            CHANNELS 3 Zrotation Xrotation Yrotation
            JOINT LeftFoot
            {
                OFFSET 0.0 -45.97001266479492 0.0
                CHANNELS 3 Zrotation Xrotation Yrotation
                End Site
                {
                    OFFSET 0.0 0.0 18.388004302978516
                }
            }
        }
    }
    JOINT Spine
    {
        OFFSET 0.0 26.087478637695312 0.0
        CHANNELS 3 Zrotation Xrotation Yrotation
        JOINT Spine3
        {
            OFFSET 0.0 25.974882125854492 0.0
            CHANNELS 3 Zrotation Xrotation Yrotation
            JOINT Neck
            {
                OFFSET 0.0 11.637940406799316 0.0
                CHANNELS 3 Zrotation Xrotation Yrotation
                End Site
                {
                    OFFSET 0.0 4.655176162719727 0.0
                }
            }
            JOINT LeftArm
            {
                OFFSET 14.725040435791016 0.0 0.0
                CHANNELS 3 Zrotation Xrotation Yrotation
                JOINT LeftForeArm
                {
                    OFFSET 29.93377685546875 0.0 0.0
                    CHANNELS 3 Zrotation Xrotation Yrotation
                    JOINT LeftHand
                    {
                        OFFSET 25.227035522460938 0.0 0.0
                        CHANNELS 3 Zrotation Xrotation Yrotation
                        End Site
                        {
                            OFFSET 10.090812683105469 0.0 0.0
                        }
                    }
                }
            }
            JOINT RightArm
            {
                OFFSET -14.725040435791016 0.0 0.0
                CHANNELS 3 Zrotation Xrotation Yrotation
                JOINT RightForeArm
                {
                    OFFSET -29.93377685546875 0.0 0.0
                    CHANNELS 3 Zrotation Xrotation Yrotation
                    JOINT RightHand
                    {
                        OFFSET -25.227035522460938 0.0 0.0
                        CHANNELS 3 Zrotation Xrotation Yrotation
                        End Site
                        {
                            OFFSET -10.090812683105469 0.0 0.0
                        }
                    }
                }
            }
        }
    }
}
MOTION
Frames: 10
Frame Time: 0.03333333333333333
-0.0001888435217551887 94.18619537353516 -0.0007907241815701127 -7.597438146652407 -14.652343805031704 -20.56853383140214 5.76744170654047 27.10374930942856 -4.267560834160321 -2.715553599322486 5.196728491857794 -0.504443999668745 4.551840869864226e-32 3.1805546814635168e-15 -1.6399735076296259e-15 1.5570538291613227 26.489513419060625 -2.281733337773815 -0.8451482975509708 3.3556134891804397 -0.2184954581123006 -6.25878119606331e-32 1.5902773407317582e-15 4.50992714598147e-15 2.0278291046318087 31.008117436910762 -2.875496794451543 -1.5938918453659458e-07 1.1102242940107082e-06 0.48832212349736587 2.9597611214853212 -5.776380572408966 -175.4377686709515 111.95646829054866 -13.97769039596436 -177.47029768346482 4.445260590576464e-06 4.7040483933732065e-08 22.40795631172938 6.3611093629270335e-15 3.1805546814635168e-15 -1.7655625192200634e-31 -113.0915240433424 -14.010131184332792 174.4047417783895 1.8720651956321876e-06 4.034034737547376e-07 -21.685626408043262 5.292641774622882e-15 -3.9756933518293955e-16 3.9756933518293955e-16
-0.00016647164011374116 94.18619537353516 -0.000768334954045713 -7.690777027208908 -14.675546447921024 -20.376942384893386 5.876523080287818 27.199260248473703 -4.266904427144136 -2.428955254279194 5.2654738809843735 -0.534425455614864 0.0 0.0 1.1927080055488188e-15 1.6811587409776063 26.4176679398291 -2.2686954227820406 -0.5339509641430376 3.637024338478354 -0.2558911645429568 1.697241801618408e-33 1.5654292572828246e-15 -1.2424041724466862e-16 2.201176240902328 31.108837612281018 -2.9011027595330576 4.769117773306885e-08 4.10713546778732e-07 0.42360009841673235 2.7468360599235693 -5.497019460857507 -175.37981838907322 112.34389591967685 -15.226216943607847 -177.2327274403194 9.56454309269e-07 -4.3853990189249625e-06 22.252428891442612 1.5902773407317588e-15 -8.827812596100317e-32 -6.361109362927035e-15 -113.39521852883051 -14.749723262668246 174.19558604599345 4.21726916791499e-06 4.112861759608904e-06 -21.708848208352684 -2.658744929035908e-15 3.9756933518293955e-16 9.224374490065761e-33
-0.00015843598521314561 94.18623352050781 -0.0007722586742602289 -7.567980101313555 -14.753793475837966 -20.271864816262777 5.638538419714284 27.201766934930912 -4.191936274614754 -2.3403262141483476 5.156290570847173 -0.5183977890887631 -3.975693351829396e-16 2.069018577211012e-33 -5.963540027744094e-16 1.3651564095967097 26.312562621543485 -2.1536466856676255 -0.017998748399756986 3.9547334192922015 -0.2994209710265842 -1.4483130040477084e-32 -1.5902773407317584e-15 -1.0436195048552165e-15 2.22182404884478 31.438801599219385 -2.979812048723337 1.4280796914467866e-07 -9.869370265346083e-08 0.457261146757445 2.585314191269745 -5.164217776185816 -174.85373505616693 112.33770658465501 -15.161219042169298 -177.03944223334645 -7.099360310311361e-07 -2.670662362482094e-06 22.284200694699788 -1.5902773407317584e-15 3.1805546814635168e-15 -3.1805546814635168e-15 -113.77940734015998 -15.4658804296027 173.79099083378523 1.3309557656993214e-06 9.682332238638735e-07 -21.60722808172324 -2.981770013872047e-16 0.0 0.0
-0.00015286945563275367 94.18619537353516 -0.0007600374519824982 -7.401240662436689 -14.836094491305444 -20.183681473713275 5.585567348042132 27.132937781008618 -4.21990602748167 -2.661196655400333 5.240250819960229 -0.5043330547155107 3.975693351829397e-16 2.5862732215137646e-33 7.454425034680119e-16 1.147735304893249 26.292077358596284 -2.114831877715623 0.06076253430288958 4.060386349093383 -0.3077323194844228 -6.357921669554672e-34 4.9696166897867443e-17 1.4660369234870896e-15 2.118218916611173 31.55754174981175 -3.00586603675884 -5.304223343184931e-07 1.969850146364745e-06 0.6042532206633888 2.434516827304589 -5.290245380159487 -175.20080913202716 111.91393911699656 -14.409060122865304 -176.95800282075848 1.8492626176244446e-06 -7.066537755597373e-06 22.096153383030778 0.0 0.0 -3.1805546814635168e-15 -113.55826759007576 -15.887777302162858 173.58049027087446 6.866446101028646e-06 -1.4081121184822078e-06 -21.112552646899438 6.13747661188663e-15 0.0 0.0
-0.00016608028090558946 94.18622589111328 -0.0007834983989596367 -7.265060699044236 -14.785927691412244 -19.990798641899982 5.603948459516272 26.87027611681064 -4.227172882977433 -2.961720553698531 5.36725156181325 -0.49817481940805014 -1.1207183959892982e-33 9.939233379573489e-17 1.2921003393445536e-15 1.1493998177663358 26.264722651884284 -2.1490442495549305 -0.022173193701293174 4.344336983922501 -0.3285088577926437 1.9878466759146977e-16 -1.5405811738338907e-15 3.478731682850721e-16 2.1874012205661377 31.48962750472053 -3.0782517704192904 -5.458966165255007e-07 -7.686305473933014e-07 0.5913526538078145 2.3125050113698205 -5.234266540783584 -175.41768182719724 111.5332030335891 -13.888509247190429 -176.9140913349131 -5.377872295428883e-06 -6.013117165003134e-06 21.95821016670454 1.590277340731758e-15 3.180554681463516e-15 -3.180554681463516e-15 -113.27298992993421 -16.338094565956457 173.5982850749106 3.2212614085160122e-06 3.075941410446478e-06 -21.0485409746401 8.249563705045997e-15 3.975693351829396e-16 -2.8621423651419e-32
-0.0001754020049702376 94.18619537353516 -0.0007791008101776242 -7.287489248263185 -14.91844953825106 -19.906411552108132 5.6244546643954605 27.040045095759375 -4.267868787197067 -2.718902113094232 5.442271447359541 -0.5300962184211009 -3.975693351829396e-16 -5.862219302097867e-33 1.6896696745274934e-15 1.0266845197098227 26.369793816155564 -2.108383204922467 0.056070147253402224 4.5142622277016295 -0.3394957182119306 -7.951386703658791e-16 4.969616689786744e-17 8.199867538148127e-16 2.3822668700605605 31.603198457784618 -3.1985007461785986 2.591011510916854e-07 -6.672656197039239e-07 0.6533564749151045 2.401462444405771 -4.93458010515995 -175.01414468391695 111.04116437270761 -13.88460764120733 -176.70116879867814 7.160951316052639e-06 5.776837336819716e-06 21.811387528636658 -4.770832022195277e-15 1.3241718894150476e-31 -3.1805546814635176e-15 -113.43421350278392 -17.110838615533293 173.29400165465336 1.558976034929646e-06 2.240844515112164e-06 -21.079105193970722 1.1430118386509513e-15 -7.931237879308878e-33 -7.951386703658792e-16
-0.00017303218191955239 94.18621063232422 -0.0007868747925385833 -7.254553289315974 -14.99310803732563 -19.75776267528435 5.614798403470988 27.069993665937883 -4.262483908422772 -2.9007877860220663 5.342506530291469 -0.5013598928846557 3.975693351829397e-16 5.517382872562698e-33 1.5902773407317588e-15 1.0318706672371358 26.574589631464555 -2.120879509803964 0.0818838415340105 4.411226149152419 -0.33276340041097857 -1.987846675914698e-16 -6.939833144395269e-33 4.00054143527833e-15 2.410764649776264 31.863908024232618 -3.231260220967556 1.979936328550581e-07 -1.7503436961572465e-06 0.6334176852586061 2.4778905759899588 -4.998205858429281 -175.00990297048745 111.15849797921918 -15.490010712711195 -176.62558562560756 1.4219122434440938e-06 4.510912242476026e-06 22.34841631651734 3.975693351829396e-15 -3.1805546814635168e-15 3.1805546814635168e-15 -113.65561581878376 -18.908858607999925 173.05940908927494 1.3109525891765205e-06 3.871903586049623e-06 -21.581654569164332 1.1989200264110522e-15 -8.319178862535944e-33 -7.951386703658792e-16
-0.00016914145089685917 94.18606567382812 -0.0007495658937841654 -7.18145007826276 -15.25598123923503 -19.408768733792886 5.922388348053276 27.58266137402438 -4.480678201367837 -3.1264575074625442 5.114531130548288 -0.4804805399487117 -8.620910738379216e-34 -9.939233379573492e-17 -9.939233379573492e-16 0.9995683421669542 26.757457154344365 -2.1178421406430576 0.12514280217080953 4.547667450792705 -0.343333254596372 0.0 0.0 1.5654292572828246e-15 2.4536684397792565 32.01548654704329 -3.265948675535513 -4.64637443327993e-08 1.1549305808893993e-06 0.5728110951603196 2.3383039953768585 -4.90663521421509 -174.2473854244107 111.4267106541521 -17.612989087499543 -176.4134330286292 -2.3669422312114196e-06 1.9067922796909133e-07 22.482690231209563 -1.5902773407317584e-15 4.4139062980501586e-32 -3.1805546814635168e-15 -113.11267416329278 -18.628981429895497 172.95273195761845 -1.43361837606089e-06 1.7518379347581678e-06 -21.358266994886268 -1.2424041724466862e-17 0.0 0.0
-0.00018753502808976918 94.18602752685547 -0.0007381971809081733 -7.1231542438189 -15.249672371522676 -19.44607522847436 5.974043729070214 27.524113025586168 -4.492963526064438 -3.5604977310906514 5.062999073432363 -0.4409309584792284 0.0 0.0 -1.9381505090168305e-15 1.099768213076517 26.69918788685861 -2.155354277994934 -0.2684400482302627 4.364290727536861 -0.30589232207483147 5.963540027744094e-16 1.5654292572828244e-15 -3.901149101482594e-15 2.425231564058812 32.19684155769369 -3.2631459216445413 1.1871585646500461e-07 5.182001460399449e-08 0.6780495839160869 2.094637243055868 -5.140721169736719 -174.3888031954928 111.43577501289657 -18.76117968982143 -176.08035839557442 1.6595690770584784e-06 1.3442261174490682e-09 22.908305540003408 -4.770832022195275e-15 1.3241718894150476e-31 -3.1805546814635168e-15 -113.12666703657318 -19.82884881420065 172.73516610145003 2.1733226793229064e-07 -2.3013531321477763e-06 -21.720789593224133 8.654121563698949e-16 7.951386703658792e-16 -6.005003136202273e-33
-0.00018431447097100317 94.18595123291016 -0.0007041678763926029 -7.266432036647339 -15.139552261274726 -19.27461189497058 6.465189279708917 27.671356306674067 -4.645505773449934 -3.7131030014398023 5.09312123176483 -0.4505526087093402 7.951386703658794e-16 -2.5862732215137646e-32 -3.727212517340059e-15 1.645591092163338 26.572583595453242 -2.293825517672928 -0.8128494410992165 4.380081488524397 -0.28813694775250237 -1.987846675914698e-16 -2.4848083448933725e-17 4.2241741863187335e-16 2.7113938870091117 32.09770431551684 -3.2913690636277657 -2.324131573295957e-07 1.1440219296191927e-06 0.6580382224832652 2.414603187897684 -5.1033982377172284 -173.286578112886 111.43455447277421 -20.404003083089123 -175.6211557343026 -2.2708017829381015e-06 -5.072791956696285e-06 22.75983325465744 -6.361109362927033e-15 -3.180554681463516e-15 -6.361109362927033e-15 -112.65325201449481 -20.338463650741456 172.528879423203 -2.183250315966228e-06 -2.2144135139850003e-06 -21.87149503323065 -7.09257481945502e-15 0.0 0.0
